<?xml version="1.0" encoding="UTF-8" standalone="no"?>
<!DOCTYPE svg PUBLIC "-//W3C//DTD SVG 1.1//EN"
 "http://www.w3.org/Graphics/SVG/1.1/DTD/svg11.dtd">
<!-- Generated by graphviz version 2.40.1 (20161225.0304)
 -->
<!-- Title: include/deal.II/fe Pages: 1 -->
<svg width="690pt" height="548pt"
 viewBox="0.00 0.00 690.00 548.00" xmlns="http://www.w3.org/2000/svg" xmlns:xlink="http://www.w3.org/1999/xlink">
<g id="graph0" class="graph" transform="scale(1 1) rotate(0) translate(4 544)">
<title>include/deal.II/fe</title>
<polygon fill="#ffffff" stroke="transparent" points="-4,4 -4,-544 686,-544 686,4 -4,4"/>
<g id="clust1" class="cluster">
<title>clusterdir_ee90d91a514b839c31faec7a1d916f67</title>
<g id="a_clust1"><a xlink:href="dir_ee90d91a514b839c31faec7a1d916f67.html" target="_top" xlink:title="deal.II">
<polygon fill="#ddddee" stroke="#000000" points="162,-208 162,-279 232,-279 232,-208 162,-208"/>
<text text-anchor="middle" x="197" y="-267" font-family="Helvetica,sans-Serif" font-size="10.00" fill="#000000">deal.II</text>
</a>
</g>
</g>
<!-- dir_9706acb4d69a98d7c15ebe226493116f -->
<g id="node1" class="node">
<title>dir_9706acb4d69a98d7c15ebe226493116f</title>
<g id="a_node1"><a xlink:href="dir_9706acb4d69a98d7c15ebe226493116f.html" target="_top" xlink:title="fe">
<polygon fill="#eeeeff" stroke="#000000" points="224,-252 170,-252 170,-216 224,-216 224,-252"/>
<text text-anchor="middle" x="197" y="-231.5" font-family="Helvetica,sans-Serif" font-size="10.00" fill="#000000">fe</text>
</a>
</g>
</g>
<!-- dir_273e60b3573ce9ad58a4d725e6a36523 -->
<g id="node2" class="node">
<title>dir_273e60b3573ce9ad58a4d725e6a36523</title>
<g id="a_node2"><a xlink:href="dir_273e60b3573ce9ad58a4d725e6a36523.html" target="_top" xlink:title="distributed">
<polygon fill="none" stroke="#000000" points="339.5,-540 270.5,-540 270.5,-504 339.5,-504 339.5,-540"/>
<text text-anchor="middle" x="305" y="-519.5" font-family="Helvetica,sans-Serif" font-size="10.00" fill="#000000">distributed</text>
</a>
</g>
</g>
<!-- dir_9706acb4d69a98d7c15ebe226493116f&#45;&gt;dir_273e60b3573ce9ad58a4d725e6a36523 -->
<g id="edge46" class="edge">
<title>dir_9706acb4d69a98d7c15ebe226493116f&#45;&gt;dir_273e60b3573ce9ad58a4d725e6a36523</title>
<path fill="none" stroke="#000000" d="M193.5099,-252.0538C188.4051,-283.1214 181.751,-347.9795 204,-396 222.1857,-435.2505 255.1415,-472.9604 278.4557,-496.7274"/>
<polygon fill="#000000" stroke="#000000" points="276.1131,-499.3347 285.6556,-503.9383 281.0667,-494.3888 276.1131,-499.3347"/>
<g id="a_edge46&#45;headlabel"><a xlink:href="dir_000012_000030.html" target="_top" xlink:title="1">
<text text-anchor="middle" x="271.5641" y="-496.2971" font-family="Helvetica,sans-Serif" font-size="10.00" fill="#000000">1</text>
</a>
</g>
</g>
<!-- dir_b2430326e20a3ae038db3bac19f0573b -->
<g id="node3" class="node">
<title>dir_b2430326e20a3ae038db3bac19f0573b</title>
<g id="a_node3"><a xlink:href="dir_b2430326e20a3ae038db3bac19f0573b.html" target="_top" xlink:title="lac">
<polygon fill="none" stroke="#000000" points="364,-468 310,-468 310,-432 364,-432 364,-468"/>
<text text-anchor="middle" x="337" y="-447.5" font-family="Helvetica,sans-Serif" font-size="10.00" fill="#000000">lac</text>
</a>
</g>
</g>
<!-- dir_9706acb4d69a98d7c15ebe226493116f&#45;&gt;dir_b2430326e20a3ae038db3bac19f0573b -->
<g id="edge47" class="edge">
<title>dir_9706acb4d69a98d7c15ebe226493116f&#45;&gt;dir_b2430326e20a3ae038db3bac19f0573b</title>
<path fill="none" stroke="#000000" d="M196.5729,-252.4932C196.3533,-262.92 196.1094,-276.186 196,-288 195.8519,-303.9993 191.9049,-308.5329 196,-324 205.425,-359.598 210.6696,-370.2559 237,-396 255.025,-413.6236 279.9665,-427.1065 300.431,-436.192"/>
<polygon fill="#000000" stroke="#000000" points="299.2004,-439.4722 309.7718,-440.1768 301.9471,-433.0336 299.2004,-439.4722"/>
<g id="a_edge47&#45;headlabel"><a xlink:href="dir_000012_000011.html" target="_top" xlink:title="7">
<text text-anchor="middle" x="294.78" y="-438.1733" font-family="Helvetica,sans-Serif" font-size="10.00" fill="#000000">7</text>
</a>
</g>
</g>
<!-- dir_4022f63979af12af4c32ec9a4562b2df -->
<g id="node4" class="node">
<title>dir_4022f63979af12af4c32ec9a4562b2df</title>
<g id="a_node4"><a xlink:href="dir_4022f63979af12af4c32ec9a4562b2df.html" target="_top" xlink:title="hp">
<polygon fill="none" stroke="#000000" points="356,-36 302,-36 302,0 356,0 356,-36"/>
<text text-anchor="middle" x="329" y="-15.5" font-family="Helvetica,sans-Serif" font-size="10.00" fill="#000000">hp</text>
</a>
</g>
</g>
<!-- dir_9706acb4d69a98d7c15ebe226493116f&#45;&gt;dir_4022f63979af12af4c32ec9a4562b2df -->
<g id="edge48" class="edge">
<title>dir_9706acb4d69a98d7c15ebe226493116f&#45;&gt;dir_4022f63979af12af4c32ec9a4562b2df</title>
<path fill="none" stroke="#000000" d="M196.22,-215.6694C195.9415,-197.1935 196.9012,-168.0497 204,-144 214.3027,-109.0959 218.1063,-98.5471 243,-72 257.0415,-57.0258 276.1011,-44.502 292.7091,-35.2973"/>
<polygon fill="#000000" stroke="#000000" points="294.4635,-38.3282 301.6361,-30.5305 291.1663,-32.1534 294.4635,-38.3282"/>
<g id="a_edge48&#45;headlabel"><a xlink:href="dir_000012_000033.html" target="_top" xlink:title="7">
<text text-anchor="middle" x="292.63" y="-40.0259" font-family="Helvetica,sans-Serif" font-size="10.00" fill="#000000">7</text>
</a>
</g>
</g>
<!-- dir_a933ab6cde53f9fa4d29dc295cb0ac5f -->
<g id="node5" class="node">
<title>dir_a933ab6cde53f9fa4d29dc295cb0ac5f</title>
<g id="a_node5"><a xlink:href="dir_a933ab6cde53f9fa4d29dc295cb0ac5f.html" target="_top" xlink:title="grid">
<polygon fill="none" stroke="#000000" points="420,-108 366,-108 366,-72 420,-72 420,-108"/>
<text text-anchor="middle" x="393" y="-87.5" font-family="Helvetica,sans-Serif" font-size="10.00" fill="#000000">grid</text>
</a>
</g>
</g>
<!-- dir_9706acb4d69a98d7c15ebe226493116f&#45;&gt;dir_a933ab6cde53f9fa4d29dc295cb0ac5f -->
<g id="edge49" class="edge">
<title>dir_9706acb4d69a98d7c15ebe226493116f&#45;&gt;dir_a933ab6cde53f9fa4d29dc295cb0ac5f</title>
<path fill="none" stroke="#000000" d="M217.793,-215.7694C229.455,-205.4248 244.1901,-192.1535 257,-180 273.4151,-164.4261 274.8542,-157.5178 293,-144 312.7166,-129.312 336.932,-116.1286 356.595,-106.4652"/>
<polygon fill="#000000" stroke="#000000" points="358.3507,-109.5045 365.8425,-102.0129 355.314,-103.1974 358.3507,-109.5045"/>
<g id="a_edge49&#45;headlabel"><a xlink:href="dir_000012_000013.html" target="_top" xlink:title="9">
<text text-anchor="middle" x="356.3436" y="-111.122" font-family="Helvetica,sans-Serif" font-size="10.00" fill="#000000">9</text>
</a>
</g>
</g>
<!-- dir_90a2ad6518b731f1dc196d14153b8b6b -->
<g id="node6" class="node">
<title>dir_90a2ad6518b731f1dc196d14153b8b6b</title>
<g id="a_node6"><a xlink:href="dir_90a2ad6518b731f1dc196d14153b8b6b.html" target="_top" xlink:title="base">
<polygon fill="#ffffff" stroke="#ff0000" points="300,-396 246,-396 246,-360 300,-360 300,-396"/>
<text text-anchor="middle" x="273" y="-375.5" font-family="Helvetica,sans-Serif" font-size="10.00" fill="#000000">base</text>
</a>
</g>
</g>
<!-- dir_9706acb4d69a98d7c15ebe226493116f&#45;&gt;dir_90a2ad6518b731f1dc196d14153b8b6b -->
<g id="edge50" class="edge">
<title>dir_9706acb4d69a98d7c15ebe226493116f&#45;&gt;dir_90a2ad6518b731f1dc196d14153b8b6b</title>
<path fill="none" stroke="#000000" d="M206.5473,-252.0896C219.6397,-276.8962 243.2768,-321.6824 258.5449,-350.6113"/>
<polygon fill="#000000" stroke="#000000" points="255.6116,-352.5521 263.3745,-359.7623 261.8023,-349.2848 255.6116,-352.5521"/>
<g id="a_edge50&#45;headlabel"><a xlink:href="dir_000012_000010.html" target="_top" xlink:title="185">
<text text-anchor="middle" x="251.4228" y="-348.1983" font-family="Helvetica,sans-Serif" font-size="10.00" fill="#000000">185</text>
</a>
</g>
</g>
<!-- dir_1a6d8571b8eba91bded1d6534762df79 -->
<g id="node7" class="node">
<title>dir_1a6d8571b8eba91bded1d6534762df79</title>
<g id="a_node7"><a xlink:href="dir_1a6d8571b8eba91bded1d6534762df79.html" target="_top" xlink:title="dofs">
<polygon fill="none" stroke="#000000" points="356,-180 302,-180 302,-144 356,-144 356,-180"/>
<text text-anchor="middle" x="329" y="-159.5" font-family="Helvetica,sans-Serif" font-size="10.00" fill="#000000">dofs</text>
</a>
</g>
</g>
<!-- dir_9706acb4d69a98d7c15ebe226493116f&#45;&gt;dir_1a6d8571b8eba91bded1d6534762df79 -->
<g id="edge51" class="edge">
<title>dir_9706acb4d69a98d7c15ebe226493116f&#45;&gt;dir_1a6d8571b8eba91bded1d6534762df79</title>
<path fill="none" stroke="#000000" d="M216.1163,-215.7323C220.3202,-213.0696 224.7493,-210.4146 229,-208 249.4099,-196.4063 273.0905,-184.4817 292.4286,-175.6795"/>
<polygon fill="#000000" stroke="#000000" points="294.1067,-178.7637 301.8215,-171.5021 291.2621,-172.3677 294.1067,-178.7637"/>
<g id="a_edge51&#45;headlabel"><a xlink:href="dir_000012_000032.html" target="_top" xlink:title="6">
<text text-anchor="middle" x="291.976" y="-180.3187" font-family="Helvetica,sans-Serif" font-size="10.00" fill="#000000">6</text>
</a>
</g>
</g>
<!-- dir_5c2eb6d9a7a6f1e9cd32e0e8abf42ca6 -->
<g id="node8" class="node">
<title>dir_5c2eb6d9a7a6f1e9cd32e0e8abf42ca6</title>
<g id="a_node8"><a xlink:href="dir_5c2eb6d9a7a6f1e9cd32e0e8abf42ca6.html" target="_top" xlink:title="numerics">
<polygon fill="none" stroke="#000000" points="466,-324 404,-324 404,-288 466,-288 466,-324"/>
<text text-anchor="middle" x="435" y="-303.5" font-family="Helvetica,sans-Serif" font-size="10.00" fill="#000000">numerics</text>
</a>
</g>
</g>
<!-- dir_9706acb4d69a98d7c15ebe226493116f&#45;&gt;dir_5c2eb6d9a7a6f1e9cd32e0e8abf42ca6 -->
<g id="edge52" class="edge">
<title>dir_9706acb4d69a98d7c15ebe226493116f&#45;&gt;dir_5c2eb6d9a7a6f1e9cd32e0e8abf42ca6</title>
<path fill="none" stroke="#000000" d="M224.1376,-246.1873C249.6464,-255.6179 288.5451,-268.7535 323,-279 346.0979,-285.8691 372.3793,-292.7434 393.8014,-297.8365"/>
<polygon fill="#000000" stroke="#000000" points="393.0483,-301.2547 403.5817,-300.1152 394.6368,-294.4373 393.0483,-301.2547"/>
<g id="a_edge52&#45;headlabel"><a xlink:href="dir_000012_000031.html" target="_top" xlink:title="1">
<text text-anchor="middle" x="388.9033" y="-300.7044" font-family="Helvetica,sans-Serif" font-size="10.00" fill="#000000">1</text>
</a>
</g>
</g>
<!-- dir_16ec7e00b3eaf1dbf09e67ec3cfcc7e2 -->
<g id="node9" class="node">
<title>dir_16ec7e00b3eaf1dbf09e67ec3cfcc7e2</title>
<g id="a_node9"><a xlink:href="dir_16ec7e00b3eaf1dbf09e67ec3cfcc7e2.html" target="_top" xlink:title="matrix_free">
<polygon fill="none" stroke="#000000" points="598,-252 524,-252 524,-216 598,-216 598,-252"/>
<text text-anchor="middle" x="561" y="-231.5" font-family="Helvetica,sans-Serif" font-size="10.00" fill="#000000">matrix_free</text>
</a>
</g>
</g>
<!-- dir_9706acb4d69a98d7c15ebe226493116f&#45;&gt;dir_16ec7e00b3eaf1dbf09e67ec3cfcc7e2 -->
<g id="edge53" class="edge">
<title>dir_9706acb4d69a98d7c15ebe226493116f&#45;&gt;dir_16ec7e00b3eaf1dbf09e67ec3cfcc7e2</title>
<path fill="none" stroke="#000000" d="M224.0156,-234C320.5325,-234 417.0494,-234 513.5663,-234"/>
<polygon fill="#000000" stroke="#000000" points="513.8133,-237.5001 523.8132,-234 513.8132,-230.5001 513.8133,-237.5001"/>
<g id="a_edge53&#45;headlabel"><a xlink:href="dir_000012_000035.html" target="_top" xlink:title="6">
<text text-anchor="middle" x="510.2186" y="-237.8393" font-family="Helvetica,sans-Serif" font-size="10.00" fill="#000000">6</text>
</a>
</g>
</g>
<!-- dir_273e60b3573ce9ad58a4d725e6a36523&#45;&gt;dir_b2430326e20a3ae038db3bac19f0573b -->
<g id="edge1" class="edge">
<title>dir_273e60b3573ce9ad58a4d725e6a36523&#45;&gt;dir_b2430326e20a3ae038db3bac19f0573b</title>
<path fill="none" stroke="#000000" d="M313.075,-503.8314C316.6102,-495.8771 320.836,-486.369 324.7456,-477.5723"/>
<polygon fill="#000000" stroke="#000000" points="327.9532,-478.9729 328.8163,-468.4133 321.5565,-476.1299 327.9532,-478.9729"/>
<g id="a_edge1&#45;headlabel"><a xlink:href="dir_000030_000011.html" target="_top" xlink:title="1">
<text text-anchor="middle" x="329.0879" y="-480.9108" font-family="Helvetica,sans-Serif" font-size="10.00" fill="#000000">1</text>
</a>
</g>
</g>
<!-- dir_273e60b3573ce9ad58a4d725e6a36523&#45;&gt;dir_a933ab6cde53f9fa4d29dc295cb0ac5f -->
<g id="edge2" class="edge">
<title>dir_273e60b3573ce9ad58a4d725e6a36523&#45;&gt;dir_a933ab6cde53f9fa4d29dc295cb0ac5f</title>
<path fill="none" stroke="#000000" d="M339.605,-515.3151C429.7433,-497.9923 664,-448.0639 664,-378 664,-378 664,-378 664,-306 664,-214.2376 616.3071,-188.3972 536,-144 501.7596,-125.0705 459.6224,-110.7194 429.8677,-101.5872"/>
<polygon fill="#000000" stroke="#000000" points="430.8658,-98.2326 420.2809,-98.6912 428.8415,-104.9335 430.8658,-98.2326"/>
<g id="a_edge2&#45;headlabel"><a xlink:href="dir_000030_000013.html" target="_top" xlink:title="5">
<text text-anchor="middle" x="435.1279" y="-94.0541" font-family="Helvetica,sans-Serif" font-size="10.00" fill="#000000">5</text>
</a>
</g>
</g>
<!-- dir_273e60b3573ce9ad58a4d725e6a36523&#45;&gt;dir_90a2ad6518b731f1dc196d14153b8b6b -->
<g id="edge3" class="edge">
<title>dir_273e60b3573ce9ad58a4d725e6a36523&#45;&gt;dir_90a2ad6518b731f1dc196d14153b8b6b</title>
<path fill="none" stroke="#000000" d="M296.274,-503.7623C288.3561,-479.201 278.3139,-435.2474 273.8035,-406.3541"/>
<polygon fill="#000000" stroke="#000000" points="277.2187,-405.5055 272.3616,-396.0896 270.2868,-406.4793 277.2187,-405.5055"/>
<g id="a_edge3&#45;headlabel"><a xlink:href="dir_000030_000010.html" target="_top" xlink:title="26">
<text text-anchor="middle" x="280.5303" y="-406.1702" font-family="Helvetica,sans-Serif" font-size="10.00" fill="#000000">26</text>
</a>
</g>
</g>
<!-- dir_273e60b3573ce9ad58a4d725e6a36523&#45;&gt;dir_1a6d8571b8eba91bded1d6534762df79 -->
<g id="edge4" class="edge">
<title>dir_273e60b3573ce9ad58a4d725e6a36523&#45;&gt;dir_1a6d8571b8eba91bded1d6534762df79</title>
<path fill="none" stroke="#000000" d="M270.3523,-514.1807C190.2734,-493.8182 0,-436.6475 0,-378 0,-378 0,-378 0,-306 0,-226.738 76.7007,-240.4851 149,-208 195.7792,-186.9815 254.2028,-173.823 291.7222,-167.2058"/>
<polygon fill="#000000" stroke="#000000" points="292.4482,-170.6328 301.7232,-165.5118 291.2791,-163.7311 292.4482,-170.6328"/>
<g id="a_edge4&#45;headlabel"><a xlink:href="dir_000030_000032.html" target="_top" xlink:title="2">
<text text-anchor="middle" x="289.3782" y="-171.5324" font-family="Helvetica,sans-Serif" font-size="10.00" fill="#000000">2</text>
</a>
</g>
</g>
<!-- dir_273e60b3573ce9ad58a4d725e6a36523&#45;&gt;dir_5c2eb6d9a7a6f1e9cd32e0e8abf42ca6 -->
<g id="edge5" class="edge">
<title>dir_273e60b3573ce9ad58a4d725e6a36523&#45;&gt;dir_5c2eb6d9a7a6f1e9cd32e0e8abf42ca6</title>
<path fill="none" stroke="#000000" d="M334.4909,-503.8681C347.7298,-494.5131 362.661,-482.1035 373,-468 403.4959,-426.4004 420.9386,-367.9472 429.1434,-333.8149"/>
<polygon fill="#000000" stroke="#000000" points="432.5589,-334.5794 431.3974,-324.0485 425.7382,-333.0052 432.5589,-334.5794"/>
<g id="a_edge5&#45;headlabel"><a xlink:href="dir_000030_000031.html" target="_top" xlink:title="2">
<text text-anchor="middle" x="434.5172" y="-336.2205" font-family="Helvetica,sans-Serif" font-size="10.00" fill="#000000">2</text>
</a>
</g>
</g>
<!-- dir_b2430326e20a3ae038db3bac19f0573b&#45;&gt;dir_90a2ad6518b731f1dc196d14153b8b6b -->
<g id="edge6" class="edge">
<title>dir_b2430326e20a3ae038db3bac19f0573b&#45;&gt;dir_90a2ad6518b731f1dc196d14153b8b6b</title>
<path fill="none" stroke="#000000" d="M314.8977,-431.8314C306.6348,-423.454 297.4665,-413.3531 289.7452,-404.1749"/>
<polygon fill="#000000" stroke="#000000" points="292.4341,-401.9341 283.3913,-396.4133 287.0175,-406.3683 292.4341,-401.9341"/>
<g id="a_edge6&#45;headlabel"><a xlink:href="dir_000011_000010.html" target="_top" xlink:title="312">
<text text-anchor="middle" x="296.908" y="-400.4171" font-family="Helvetica,sans-Serif" font-size="10.00" fill="#000000">312</text>
</a>
</g>
</g>
<!-- dir_b2430326e20a3ae038db3bac19f0573b&#45;&gt;dir_16ec7e00b3eaf1dbf09e67ec3cfcc7e2 -->
<g id="edge7" class="edge">
<title>dir_b2430326e20a3ae038db3bac19f0573b&#45;&gt;dir_16ec7e00b3eaf1dbf09e67ec3cfcc7e2</title>
<path fill="none" stroke="#000000" d="M362.5594,-431.8766C396.8266,-409.8887 457.5021,-370 499,-324 516.0141,-305.14 530.2772,-279.9731 541.1802,-261.0481"/>
<polygon fill="#000000" stroke="#000000" points="544.2578,-262.718 546.26,-252.314 538.2068,-259.1987 544.2578,-262.718"/>
<g id="a_edge7&#45;headlabel"><a xlink:href="dir_000011_000035.html" target="_top" xlink:title="1">
<text text-anchor="middle" x="544.905" y="-264.7527" font-family="Helvetica,sans-Serif" font-size="10.00" fill="#000000">1</text>
</a>
</g>
</g>
<!-- dir_4022f63979af12af4c32ec9a4562b2df&#45;&gt;dir_9706acb4d69a98d7c15ebe226493116f -->
<g id="edge11" class="edge">
<title>dir_4022f63979af12af4c32ec9a4562b2df&#45;&gt;dir_9706acb4d69a98d7c15ebe226493116f</title>
<path fill="none" stroke="#000000" d="M309.3156,-36.1857C285.5815,-59.1444 246.0191,-100.8766 223,-144 212.5798,-163.5208 205.8918,-187.7133 201.912,-206.098"/>
<polygon fill="#000000" stroke="#000000" points="198.4797,-205.4135 199.9236,-215.9095 205.3402,-206.8039 198.4797,-205.4135"/>
<g id="a_edge11&#45;headlabel"><a xlink:href="dir_000033_000012.html" target="_top" xlink:title="7">
<text text-anchor="middle" x="196.4109" y="-198.8266" font-family="Helvetica,sans-Serif" font-size="10.00" fill="#000000">7</text>
</a>
</g>
</g>
<!-- dir_4022f63979af12af4c32ec9a4562b2df&#45;&gt;dir_a933ab6cde53f9fa4d29dc295cb0ac5f -->
<g id="edge8" class="edge">
<title>dir_4022f63979af12af4c32ec9a4562b2df&#45;&gt;dir_a933ab6cde53f9fa4d29dc295cb0ac5f</title>
<path fill="none" stroke="#000000" d="M351.3434,-36.4133C359.54,-44.7389 368.6014,-54.7282 376.2458,-63.8144"/>
<polygon fill="#000000" stroke="#000000" points="373.7623,-66.3063 382.8025,-71.8314 379.1809,-61.8747 373.7623,-66.3063"/>
<g id="a_edge8&#45;headlabel"><a xlink:href="dir_000033_000013.html" target="_top" xlink:title="2">
<text text-anchor="middle" x="369.2888" y="-62.8213" font-family="Helvetica,sans-Serif" font-size="10.00" fill="#000000">2</text>
</a>
</g>
</g>
<!-- dir_4022f63979af12af4c32ec9a4562b2df&#45;&gt;dir_90a2ad6518b731f1dc196d14153b8b6b -->
<g id="edge9" class="edge">
<title>dir_4022f63979af12af4c32ec9a4562b2df&#45;&gt;dir_90a2ad6518b731f1dc196d14153b8b6b</title>
<path fill="none" stroke="#000000" d="M301.5294,-26.5323C277.4017,-34.4469 243.1511,-48.6089 221,-72 176.282,-119.2211 179.2175,-144.1231 167,-208 161.0719,-238.9937 156.161,-249.3644 167,-279 179.4388,-313.0098 211.6765,-339.0399 237.4711,-355.8541"/>
<polygon fill="#000000" stroke="#000000" points="235.6104,-358.8186 245.9339,-361.2012 239.3495,-352.9008 235.6104,-358.8186"/>
<g id="a_edge9&#45;headlabel"><a xlink:href="dir_000033_000010.html" target="_top" xlink:title="13">
<text text-anchor="middle" x="231.055" y="-356.7988" font-family="Helvetica,sans-Serif" font-size="10.00" fill="#000000">13</text>
</a>
</g>
</g>
<!-- dir_4022f63979af12af4c32ec9a4562b2df&#45;&gt;dir_1a6d8571b8eba91bded1d6534762df79 -->
<g id="edge10" class="edge">
<title>dir_4022f63979af12af4c32ec9a4562b2df&#45;&gt;dir_1a6d8571b8eba91bded1d6534762df79</title>
<path fill="none" stroke="#000000" d="M333.6583,-36.0896C336.1269,-60.5727 336.4104,-104.5174 334.5089,-133.4713"/>
<polygon fill="#000000" stroke="#000000" points="330.9942,-133.5118 333.6732,-143.7623 337.9712,-134.0785 330.9942,-133.5118"/>
<g id="a_edge10&#45;headlabel"><a xlink:href="dir_000033_000032.html" target="_top" xlink:title="2">
<text text-anchor="middle" x="328.4551" y="-127.1992" font-family="Helvetica,sans-Serif" font-size="10.00" fill="#000000">2</text>
</a>
</g>
</g>
<!-- dir_a933ab6cde53f9fa4d29dc295cb0ac5f&#45;&gt;dir_9706acb4d69a98d7c15ebe226493116f -->
<g id="edge18" class="edge">
<title>dir_a933ab6cde53f9fa4d29dc295cb0ac5f&#45;&gt;dir_9706acb4d69a98d7c15ebe226493116f</title>
<path fill="none" stroke="#000000" d="M365.9362,-96.1093C337.278,-103.622 291.8645,-118.6058 260,-144 238.6254,-161.0344 221.4395,-187.1999 210.4508,-206.9357"/>
<polygon fill="#000000" stroke="#000000" points="207.3556,-205.3015 205.7041,-215.7668 213.5214,-208.6156 207.3556,-205.3015"/>
<g id="a_edge18&#45;headlabel"><a xlink:href="dir_000013_000012.html" target="_top" xlink:title="4">
<text text-anchor="middle" x="206.5565" y="-198.291" font-family="Helvetica,sans-Serif" font-size="10.00" fill="#000000">4</text>
</a>
</g>
</g>
<!-- dir_a933ab6cde53f9fa4d29dc295cb0ac5f&#45;&gt;dir_273e60b3573ce9ad58a4d725e6a36523 -->
<g id="edge12" class="edge">
<title>dir_a933ab6cde53f9fa4d29dc295cb0ac5f&#45;&gt;dir_273e60b3573ce9ad58a4d725e6a36523</title>
<path fill="none" stroke="#000000" d="M420.2778,-95.2008C453.6127,-103.1026 510.252,-119.8142 554,-144 634.3071,-188.3972 682,-214.2376 682,-306 682,-378 682,-378 682,-378 682,-447.7398 449.9055,-497.5299 349.8495,-515.0726"/>
<polygon fill="#000000" stroke="#000000" points="349.0001,-511.6673 339.739,-516.8134 350.1879,-518.5658 349.0001,-511.6673"/>
<g id="a_edge12&#45;headlabel"><a xlink:href="dir_000013_000030.html" target="_top" xlink:title="2">
<text text-anchor="middle" x="352.0608" y="-505.7593" font-family="Helvetica,sans-Serif" font-size="10.00" fill="#000000">2</text>
</a>
</g>
</g>
<!-- dir_a933ab6cde53f9fa4d29dc295cb0ac5f&#45;&gt;dir_b2430326e20a3ae038db3bac19f0573b -->
<g id="edge13" class="edge">
<title>dir_a933ab6cde53f9fa4d29dc295cb0ac5f&#45;&gt;dir_b2430326e20a3ae038db3bac19f0573b</title>
<path fill="none" stroke="#000000" d="M420.2763,-101.7897C443.3173,-112.0682 476.948,-127.828 505,-144 529.6697,-158.2221 533.8422,-164.9247 558,-180 579.2792,-193.2789 594.4104,-186.3058 607,-208 622.8386,-235.2927 620.1597,-250.3194 607,-279 563.3813,-374.0636 437.6025,-421.8453 374.3115,-440.4325"/>
<polygon fill="#000000" stroke="#000000" points="373.0072,-437.1646 364.3472,-443.2684 374.9234,-443.8973 373.0072,-437.1646"/>
<g id="a_edge13&#45;headlabel"><a xlink:href="dir_000013_000011.html" target="_top" xlink:title="6">
<text text-anchor="middle" x="375.6873" y="-430.9499" font-family="Helvetica,sans-Serif" font-size="10.00" fill="#000000">6</text>
</a>
</g>
</g>
<!-- dir_a933ab6cde53f9fa4d29dc295cb0ac5f&#45;&gt;dir_4022f63979af12af4c32ec9a4562b2df -->
<g id="edge14" class="edge">
<title>dir_a933ab6cde53f9fa4d29dc295cb0ac5f&#45;&gt;dir_4022f63979af12af4c32ec9a4562b2df</title>
<path fill="none" stroke="#000000" d="M370.8977,-71.8314C362.6348,-63.454 353.4665,-53.3531 345.7452,-44.1749"/>
<polygon fill="#000000" stroke="#000000" points="348.4341,-41.9341 339.3913,-36.4133 343.0175,-46.3683 348.4341,-41.9341"/>
<g id="a_edge14&#45;headlabel"><a xlink:href="dir_000013_000033.html" target="_top" xlink:title="1">
<text text-anchor="middle" x="352.908" y="-40.4171" font-family="Helvetica,sans-Serif" font-size="10.00" fill="#000000">1</text>
</a>
</g>
</g>
<!-- dir_a933ab6cde53f9fa4d29dc295cb0ac5f&#45;&gt;dir_90a2ad6518b731f1dc196d14153b8b6b -->
<g id="edge15" class="edge">
<title>dir_a933ab6cde53f9fa4d29dc295cb0ac5f&#45;&gt;dir_90a2ad6518b731f1dc196d14153b8b6b</title>
<path fill="none" stroke="#000000" d="M394.92,-108.1717C392.0071,-126.5241 383.4261,-155.5737 374,-180 349.8457,-242.5921 315.1123,-313.2835 293.0009,-350.9527"/>
<polygon fill="#000000" stroke="#000000" points="289.8361,-349.423 287.6654,-359.7931 295.8292,-353.0401 289.8361,-349.423"/>
<g id="a_edge15&#45;headlabel"><a xlink:href="dir_000013_000010.html" target="_top" xlink:title="89">
<text text-anchor="middle" x="289.2626" y="-342.3784" font-family="Helvetica,sans-Serif" font-size="10.00" fill="#000000">89</text>
</a>
</g>
</g>
<!-- dir_a933ab6cde53f9fa4d29dc295cb0ac5f&#45;&gt;dir_1a6d8571b8eba91bded1d6534762df79 -->
<g id="edge16" class="edge">
<title>dir_a933ab6cde53f9fa4d29dc295cb0ac5f&#45;&gt;dir_1a6d8571b8eba91bded1d6534762df79</title>
<path fill="none" stroke="#000000" d="M382.6087,-108.4133C375.8694,-116.9088 366.9509,-127.1366 358.2773,-136.3696"/>
<polygon fill="#000000" stroke="#000000" points="355.5106,-134.1972 351.1023,-143.8314 360.5564,-139.049 355.5106,-134.1972"/>
<g id="a_edge16&#45;headlabel"><a xlink:href="dir_000013_000032.html" target="_top" xlink:title="2">
<text text-anchor="middle" x="355.9555" y="-127.1382" font-family="Helvetica,sans-Serif" font-size="10.00" fill="#000000">2</text>
</a>
</g>
</g>
<!-- dir_a933ab6cde53f9fa4d29dc295cb0ac5f&#45;&gt;dir_5c2eb6d9a7a6f1e9cd32e0e8abf42ca6 -->
<g id="edge17" class="edge">
<title>dir_a933ab6cde53f9fa4d29dc295cb0ac5f&#45;&gt;dir_5c2eb6d9a7a6f1e9cd32e0e8abf42ca6</title>
<path fill="none" stroke="#000000" d="M410.1458,-108.0331C416.0797,-118.3159 421.7029,-131.5912 425,-144 437.1519,-189.7348 441.5351,-244.7907 440.6105,-277.5106"/>
<polygon fill="#000000" stroke="#000000" points="437.1046,-277.5414 440.097,-287.7049 444.0957,-277.8936 437.1046,-277.5414"/>
<g id="a_edge17&#45;headlabel"><a xlink:href="dir_000013_000031.html" target="_top" xlink:title="3">
<text text-anchor="middle" x="434.4497" y="-271.3086" font-family="Helvetica,sans-Serif" font-size="10.00" fill="#000000">3</text>
</a>
</g>
</g>
<!-- dir_90a2ad6518b731f1dc196d14153b8b6b&#45;&gt;dir_9706acb4d69a98d7c15ebe226493116f -->
<g id="edge25" class="edge">
<title>dir_90a2ad6518b731f1dc196d14153b8b6b&#45;&gt;dir_9706acb4d69a98d7c15ebe226493116f</title>
<path fill="none" stroke="#000000" d="M245.9807,-360.5709C233.6762,-351.2146 220.0843,-338.6009 212,-324 201.5449,-305.1173 197.9699,-280.8387 196.913,-262.2577"/>
<polygon fill="#000000" stroke="#000000" points="200.4035,-261.9283 196.5487,-252.0597 193.408,-262.1783 200.4035,-261.9283"/>
<g id="a_edge25&#45;headlabel"><a xlink:href="dir_000010_000012.html" target="_top" xlink:title="4">
<text text-anchor="middle" x="203.3692" y="-262.9193" font-family="Helvetica,sans-Serif" font-size="10.00" fill="#000000">4</text>
</a>
</g>
</g>
<!-- dir_90a2ad6518b731f1dc196d14153b8b6b&#45;&gt;dir_273e60b3573ce9ad58a4d725e6a36523 -->
<g id="edge19" class="edge">
<title>dir_90a2ad6518b731f1dc196d14153b8b6b&#45;&gt;dir_273e60b3573ce9ad58a4d725e6a36523</title>
<path fill="none" stroke="#000000" d="M281.6782,-396.0896C289.6223,-420.6805 299.7251,-464.905 304.2288,-493.8531"/>
<polygon fill="#000000" stroke="#000000" points="300.7636,-494.3462 305.6203,-503.7623 307.6956,-493.3727 300.7636,-494.3462"/>
<g id="a_edge19&#45;headlabel"><a xlink:href="dir_000010_000030.html" target="_top" xlink:title="1">
<text text-anchor="middle" x="297.4521" y="-488.6814" font-family="Helvetica,sans-Serif" font-size="10.00" fill="#000000">1</text>
</a>
</g>
</g>
<!-- dir_90a2ad6518b731f1dc196d14153b8b6b&#45;&gt;dir_b2430326e20a3ae038db3bac19f0573b -->
<g id="edge20" class="edge">
<title>dir_90a2ad6518b731f1dc196d14153b8b6b&#45;&gt;dir_b2430326e20a3ae038db3bac19f0573b</title>
<path fill="none" stroke="#000000" d="M295.3434,-396.4133C303.54,-404.7389 312.6014,-414.7282 320.2458,-423.8144"/>
<polygon fill="#000000" stroke="#000000" points="317.7623,-426.3063 326.8025,-431.8314 323.1809,-421.8747 317.7623,-426.3063"/>
<g id="a_edge20&#45;headlabel"><a xlink:href="dir_000010_000011.html" target="_top" xlink:title="8">
<text text-anchor="middle" x="313.2888" y="-422.8213" font-family="Helvetica,sans-Serif" font-size="10.00" fill="#000000">8</text>
</a>
</g>
</g>
<!-- dir_90a2ad6518b731f1dc196d14153b8b6b&#45;&gt;dir_4022f63979af12af4c32ec9a4562b2df -->
<g id="edge21" class="edge">
<title>dir_90a2ad6518b731f1dc196d14153b8b6b&#45;&gt;dir_4022f63979af12af4c32ec9a4562b2df</title>
<path fill="none" stroke="#000000" d="M245.9891,-368.2939C214.4132,-353.6992 165.1072,-323.0397 149,-279 138.161,-249.3644 143.0719,-238.9937 149,-208 161.2175,-144.1231 158.282,-119.2211 203,-72 226.5644,-47.1166 263.8215,-32.6773 291.8749,-25.0929"/>
<polygon fill="#000000" stroke="#000000" points="292.9111,-28.4413 301.7516,-22.6021 291.1993,-21.6538 292.9111,-28.4413"/>
<g id="a_edge21&#45;headlabel"><a xlink:href="dir_000010_000033.html" target="_top" xlink:title="1">
<text text-anchor="middle" x="290.1198" y="-29.5733" font-family="Helvetica,sans-Serif" font-size="10.00" fill="#000000">1</text>
</a>
</g>
</g>
<!-- dir_90a2ad6518b731f1dc196d14153b8b6b&#45;&gt;dir_a933ab6cde53f9fa4d29dc295cb0ac5f -->
<g id="edge22" class="edge">
<title>dir_90a2ad6518b731f1dc196d14153b8b6b&#45;&gt;dir_a933ab6cde53f9fa4d29dc295cb0ac5f</title>
<path fill="none" stroke="#000000" d="M277.2591,-359.7931C291.1493,-325.3233 329.7987,-247.8965 356,-180 363.9165,-159.4858 371.2368,-135.7104 377.7073,-117.7497"/>
<polygon fill="#000000" stroke="#000000" points="381.0654,-118.7636 381.3145,-108.1717 374.5145,-116.2964 381.0654,-118.7636"/>
<g id="a_edge22&#45;headlabel"><a xlink:href="dir_000010_000013.html" target="_top" xlink:title="8">
<text text-anchor="middle" x="382.4556" y="-120.6283" font-family="Helvetica,sans-Serif" font-size="10.00" fill="#000000">8</text>
</a>
</g>
</g>
<!-- dir_90a2ad6518b731f1dc196d14153b8b6b&#45;&gt;dir_1a6d8571b8eba91bded1d6534762df79 -->
<g id="edge23" class="edge">
<title>dir_90a2ad6518b731f1dc196d14153b8b6b&#45;&gt;dir_1a6d8571b8eba91bded1d6534762df79</title>
<path fill="none" stroke="#000000" d="M266.8287,-359.8588C262.4595,-327.908 263.805,-260.0557 285,-208 287.8098,-201.0991 291.9339,-194.3317 296.5933,-188.2007"/>
<polygon fill="#000000" stroke="#000000" points="299.4825,-190.2014 303.2055,-180.2822 294.1094,-185.7147 299.4825,-190.2014"/>
<g id="a_edge23&#45;headlabel"><a xlink:href="dir_000010_000032.html" target="_top" xlink:title="2">
<text text-anchor="middle" x="299.3579" y="-192.2803" font-family="Helvetica,sans-Serif" font-size="10.00" fill="#000000">2</text>
</a>
</g>
</g>
<!-- dir_90a2ad6518b731f1dc196d14153b8b6b&#45;&gt;dir_5c2eb6d9a7a6f1e9cd32e0e8abf42ca6 -->
<g id="edge24" class="edge">
<title>dir_90a2ad6518b731f1dc196d14153b8b6b&#45;&gt;dir_5c2eb6d9a7a6f1e9cd32e0e8abf42ca6</title>
<path fill="none" stroke="#000000" d="M300.2345,-363.4297C326.0044,-351.2838 364.8036,-334.021 394.2301,-321.5975"/>
<polygon fill="#000000" stroke="#000000" points="395.9448,-324.6741 403.8179,-317.5843 393.242,-318.217 395.9448,-324.6741"/>
<g id="a_edge24&#45;headlabel"><a xlink:href="dir_000010_000031.html" target="_top" xlink:title="2">
<text text-anchor="middle" x="393.7253" y="-326.1811" font-family="Helvetica,sans-Serif" font-size="10.00" fill="#000000">2</text>
</a>
</g>
</g>
<!-- dir_1a6d8571b8eba91bded1d6534762df79&#45;&gt;dir_9706acb4d69a98d7c15ebe226493116f -->
<g id="edge31" class="edge">
<title>dir_1a6d8571b8eba91bded1d6534762df79&#45;&gt;dir_9706acb4d69a98d7c15ebe226493116f</title>
<path fill="none" stroke="#000000" d="M301.7181,-178.9097C285.5646,-187.2825 265.0091,-197.7701 247,-208 242.534,-210.5369 237.8711,-213.3392 233.2366,-216.1369"/>
<polygon fill="#000000" stroke="#000000" points="231.1843,-213.2869 224.4185,-221.4401 234.792,-219.2856 231.1843,-213.2869"/>
<g id="a_edge31&#45;headlabel"><a xlink:href="dir_000032_000012.html" target="_top" xlink:title="1">
<text text-anchor="middle" x="232.8014" y="-206.5012" font-family="Helvetica,sans-Serif" font-size="10.00" fill="#000000">1</text>
</a>
</g>
</g>
<!-- dir_1a6d8571b8eba91bded1d6534762df79&#45;&gt;dir_273e60b3573ce9ad58a4d725e6a36523 -->
<g id="edge26" class="edge">
<title>dir_1a6d8571b8eba91bded1d6534762df79&#45;&gt;dir_273e60b3573ce9ad58a4d725e6a36523</title>
<path fill="none" stroke="#000000" d="M301.8594,-167.7954C268.8388,-174.5894 212.4285,-187.5883 167,-208 94.7007,-240.4851 18,-226.738 18,-306 18,-378 18,-378 18,-378 18,-432.0499 179.6102,-484.8455 260.3707,-508.7302"/>
<polygon fill="#000000" stroke="#000000" points="259.6895,-512.1778 270.2703,-511.6341 261.6598,-505.4608 259.6895,-512.1778"/>
<g id="a_edge26&#45;headlabel"><a xlink:href="dir_000032_000030.html" target="_top" xlink:title="1">
<text text-anchor="middle" x="255.441" y="-511.3906" font-family="Helvetica,sans-Serif" font-size="10.00" fill="#000000">1</text>
</a>
</g>
</g>
<!-- dir_1a6d8571b8eba91bded1d6534762df79&#45;&gt;dir_b2430326e20a3ae038db3bac19f0573b -->
<g id="edge27" class="edge">
<title>dir_1a6d8571b8eba91bded1d6534762df79&#45;&gt;dir_b2430326e20a3ae038db3bac19f0573b</title>
<path fill="none" stroke="#000000" d="M329.5002,-180.0089C330.8525,-228.6912 334.5886,-363.1886 336.2204,-421.9345"/>
<polygon fill="#000000" stroke="#000000" points="332.7231,-422.0854 336.4996,-431.9843 339.7204,-421.8909 332.7231,-422.0854"/>
<g id="a_edge27&#45;headlabel"><a xlink:href="dir_000032_000011.html" target="_top" xlink:title="2">
<text text-anchor="middle" x="329.7853" y="-416.071" font-family="Helvetica,sans-Serif" font-size="10.00" fill="#000000">2</text>
</a>
</g>
</g>
<!-- dir_1a6d8571b8eba91bded1d6534762df79&#45;&gt;dir_4022f63979af12af4c32ec9a4562b2df -->
<g id="edge28" class="edge">
<title>dir_1a6d8571b8eba91bded1d6534762df79&#45;&gt;dir_4022f63979af12af4c32ec9a4562b2df</title>
<path fill="none" stroke="#000000" d="M324.3268,-143.7623C321.867,-119.201 321.5923,-75.2474 323.5026,-46.3541"/>
<polygon fill="#000000" stroke="#000000" points="327.0152,-46.3416 324.3417,-36.0896 320.0385,-45.7712 327.0152,-46.3416"/>
<g id="a_edge28&#45;headlabel"><a xlink:href="dir_000032_000033.html" target="_top" xlink:title="4">
<text text-anchor="middle" x="329.5522" y="-47.6556" font-family="Helvetica,sans-Serif" font-size="10.00" fill="#000000">4</text>
</a>
</g>
</g>
<!-- dir_1a6d8571b8eba91bded1d6534762df79&#45;&gt;dir_a933ab6cde53f9fa4d29dc295cb0ac5f -->
<g id="edge29" class="edge">
<title>dir_1a6d8571b8eba91bded1d6534762df79&#45;&gt;dir_a933ab6cde53f9fa4d29dc295cb0ac5f</title>
<path fill="none" stroke="#000000" d="M339.1975,-143.8314C345.8946,-135.3694 354.7943,-125.1489 363.4724,-115.8971"/>
<polygon fill="#000000" stroke="#000000" points="366.2563,-118.0511 370.6566,-108.4133 361.2065,-113.2034 366.2563,-118.0511"/>
<g id="a_edge29&#45;headlabel"><a xlink:href="dir_000032_000013.html" target="_top" xlink:title="1">
<text text-anchor="middle" x="365.8152" y="-120.1105" font-family="Helvetica,sans-Serif" font-size="10.00" fill="#000000">1</text>
</a>
</g>
</g>
<!-- dir_1a6d8571b8eba91bded1d6534762df79&#45;&gt;dir_90a2ad6518b731f1dc196d14153b8b6b -->
<g id="edge30" class="edge">
<title>dir_1a6d8571b8eba91bded1d6534762df79&#45;&gt;dir_90a2ad6518b731f1dc196d14153b8b6b</title>
<path fill="none" stroke="#000000" d="M319.854,-180.2822C313.9548,-188.207 307.0869,-197.9624 303,-208 283.8748,-254.9722 280.9116,-314.8062 278.4035,-349.5192"/>
<polygon fill="#000000" stroke="#000000" points="274.8852,-349.6138 277.5853,-359.8588 281.8634,-350.1661 274.8852,-349.6138"/>
<g id="a_edge30&#45;headlabel"><a xlink:href="dir_000032_000010.html" target="_top" xlink:title="31">
<text text-anchor="middle" x="272.3383" y="-343.3064" font-family="Helvetica,sans-Serif" font-size="10.00" fill="#000000">31</text>
</a>
</g>
</g>
<!-- dir_5c2eb6d9a7a6f1e9cd32e0e8abf42ca6&#45;&gt;dir_9706acb4d69a98d7c15ebe226493116f -->
<g id="edge38" class="edge">
<title>dir_5c2eb6d9a7a6f1e9cd32e0e8abf42ca6&#45;&gt;dir_9706acb4d69a98d7c15ebe226493116f</title>
<path fill="none" stroke="#000000" d="M403.8231,-296.3418C385.4258,-291.4403 361.9086,-285.218 341,-279 304.5656,-268.1648 263.162,-254.0991 233.9692,-244.5998"/>
<polygon fill="#000000" stroke="#000000" points="234.7724,-241.1814 224.1808,-241.443 232.6238,-247.8435 234.7724,-241.1814"/>
<g id="a_edge38&#45;headlabel"><a xlink:href="dir_000031_000012.html" target="_top" xlink:title="14">
<text text-anchor="middle" x="239.0649" y="-237.0824" font-family="Helvetica,sans-Serif" font-size="10.00" fill="#000000">14</text>
</a>
</g>
</g>
<!-- dir_5c2eb6d9a7a6f1e9cd32e0e8abf42ca6&#45;&gt;dir_b2430326e20a3ae038db3bac19f0573b -->
<g id="edge32" class="edge">
<title>dir_5c2eb6d9a7a6f1e9cd32e0e8abf42ca6&#45;&gt;dir_b2430326e20a3ae038db3bac19f0573b</title>
<path fill="none" stroke="#000000" d="M422.689,-324.0896C405.6599,-349.1119 374.7962,-394.4628 355.1284,-423.3623"/>
<polygon fill="#000000" stroke="#000000" points="352.1446,-421.526 349.4118,-431.7623 357.9316,-425.4644 352.1446,-421.526"/>
<g id="a_edge32&#45;headlabel"><a xlink:href="dir_000031_000011.html" target="_top" xlink:title="10">
<text text-anchor="middle" x="351.8197" y="-414.4568" font-family="Helvetica,sans-Serif" font-size="10.00" fill="#000000">10</text>
</a>
</g>
</g>
<!-- dir_5c2eb6d9a7a6f1e9cd32e0e8abf42ca6&#45;&gt;dir_4022f63979af12af4c32ec9a4562b2df -->
<g id="edge33" class="edge">
<title>dir_5c2eb6d9a7a6f1e9cd32e0e8abf42ca6&#45;&gt;dir_4022f63979af12af4c32ec9a4562b2df</title>
<path fill="none" stroke="#000000" d="M449.8963,-287.914C451.5771,-285.0734 453.0312,-282.0601 454,-279 481.9694,-190.6531 483.4999,-146.9481 429,-72 413.7046,-50.9658 387.6487,-37.2761 365.9684,-28.9442"/>
<polygon fill="#000000" stroke="#000000" points="366.9638,-25.5826 356.3694,-25.4858 364.5911,-32.1683 366.9638,-25.5826"/>
<g id="a_edge33&#45;headlabel"><a xlink:href="dir_000031_000033.html" target="_top" xlink:title="5">
<text text-anchor="middle" x="371.308" y="-21.6298" font-family="Helvetica,sans-Serif" font-size="10.00" fill="#000000">5</text>
</a>
</g>
</g>
<!-- dir_5c2eb6d9a7a6f1e9cd32e0e8abf42ca6&#45;&gt;dir_a933ab6cde53f9fa4d29dc295cb0ac5f -->
<g id="edge34" class="edge">
<title>dir_5c2eb6d9a7a6f1e9cd32e0e8abf42ca6&#45;&gt;dir_a933ab6cde53f9fa4d29dc295cb0ac5f</title>
<path fill="none" stroke="#000000" d="M429.0009,-287.7049C424.4268,-257.3572 420.5256,-194.9048 407,-144 404.656,-135.1781 401.1363,-125.9183 397.9362,-117.6071"/>
<polygon fill="#000000" stroke="#000000" points="401.1205,-116.1338 394.2919,-108.0331 394.5784,-118.624 401.1205,-116.1338"/>
<g id="a_edge34&#45;headlabel"><a xlink:href="dir_000031_000013.html" target="_top" xlink:title="7">
<text text-anchor="middle" x="405.0527" y="-115.9832" font-family="Helvetica,sans-Serif" font-size="10.00" fill="#000000">7</text>
</a>
</g>
</g>
<!-- dir_5c2eb6d9a7a6f1e9cd32e0e8abf42ca6&#45;&gt;dir_90a2ad6518b731f1dc196d14153b8b6b -->
<g id="edge35" class="edge">
<title>dir_5c2eb6d9a7a6f1e9cd32e0e8abf42ca6&#45;&gt;dir_90a2ad6518b731f1dc196d14153b8b6b</title>
<path fill="none" stroke="#000000" d="M403.9539,-322.3597C376.9855,-334.9732 338.0711,-352.2225 309.6007,-364.1565"/>
<polygon fill="#000000" stroke="#000000" points="307.8972,-361.0739 300.0026,-368.1397 310.5804,-367.5393 307.8972,-361.0739"/>
<g id="a_edge35&#45;headlabel"><a xlink:href="dir_000031_000010.html" target="_top" xlink:title="74">
<text text-anchor="middle" x="310.129" y="-354.5737" font-family="Helvetica,sans-Serif" font-size="10.00" fill="#000000">74</text>
</a>
</g>
</g>
<!-- dir_5c2eb6d9a7a6f1e9cd32e0e8abf42ca6&#45;&gt;dir_1a6d8571b8eba91bded1d6534762df79 -->
<g id="edge36" class="edge">
<title>dir_5c2eb6d9a7a6f1e9cd32e0e8abf42ca6&#45;&gt;dir_1a6d8571b8eba91bded1d6534762df79</title>
<path fill="none" stroke="#000000" d="M421.575,-287.7623C403.097,-262.66 369.7082,-217.3017 348.4827,-188.4671"/>
<polygon fill="#000000" stroke="#000000" points="351.0629,-186.0681 342.316,-180.0896 345.4255,-190.2179 351.0629,-186.0681"/>
<g id="a_edge36&#45;headlabel"><a xlink:href="dir_000031_000032.html" target="_top" xlink:title="12">
<text text-anchor="middle" x="355.4803" y="-184.7798" font-family="Helvetica,sans-Serif" font-size="10.00" fill="#000000">12</text>
</a>
</g>
</g>
<!-- dir_5c2eb6d9a7a6f1e9cd32e0e8abf42ca6&#45;&gt;dir_16ec7e00b3eaf1dbf09e67ec3cfcc7e2 -->
<g id="edge37" class="edge">
<title>dir_5c2eb6d9a7a6f1e9cd32e0e8abf42ca6&#45;&gt;dir_16ec7e00b3eaf1dbf09e67ec3cfcc7e2</title>
<path fill="none" stroke="#000000" d="M466.3366,-293.0518C470.8958,-291.2887 475.5514,-289.5535 480,-288 493.1421,-283.4105 497.8322,-285.7618 510,-279 519.4441,-273.7518 528.6525,-266.5065 536.587,-259.3621"/>
<polygon fill="#000000" stroke="#000000" points="539.176,-261.7318 544.0586,-252.3291 534.3781,-256.6347 539.176,-261.7318"/>
<g id="a_edge37&#45;headlabel"><a xlink:href="dir_000031_000035.html" target="_top" xlink:title="1">
<text text-anchor="middle" x="538.5046" y="-263.763" font-family="Helvetica,sans-Serif" font-size="10.00" fill="#000000">1</text>
</a>
</g>
</g>
<!-- dir_16ec7e00b3eaf1dbf09e67ec3cfcc7e2&#45;&gt;dir_9706acb4d69a98d7c15ebe226493116f -->
<g id="edge45" class="edge">
<title>dir_16ec7e00b3eaf1dbf09e67ec3cfcc7e2&#45;&gt;dir_9706acb4d69a98d7c15ebe226493116f</title>
<path fill="none" stroke="#000000" d="M523.8132,-234C427.2964,-234 330.7795,-234 234.2626,-234"/>
<polygon fill="#000000" stroke="#000000" points="234.0157,-230.5001 224.0156,-234 234.0156,-237.5001 234.0157,-230.5001"/>
<g id="a_edge45&#45;headlabel"><a xlink:href="dir_000035_000012.html" target="_top" xlink:title="16">
<text text-anchor="middle" x="237.6102" y="-225.1607" font-family="Helvetica,sans-Serif" font-size="10.00" fill="#000000">16</text>
</a>
</g>
</g>
<!-- dir_16ec7e00b3eaf1dbf09e67ec3cfcc7e2&#45;&gt;dir_273e60b3573ce9ad58a4d725e6a36523 -->
<g id="edge39" class="edge">
<title>dir_16ec7e00b3eaf1dbf09e67ec3cfcc7e2&#45;&gt;dir_273e60b3573ce9ad58a4d725e6a36523</title>
<path fill="none" stroke="#000000" d="M560.4601,-252.3033C559.2107,-271.2764 555.2588,-301.2828 543,-324 498.5106,-406.4446 404.2766,-468.4083 348.6581,-499.5624"/>
<polygon fill="#000000" stroke="#000000" points="346.8109,-496.5841 339.7435,-504.4773 350.1906,-502.7142 346.8109,-496.5841"/>
<g id="a_edge39&#45;headlabel"><a xlink:href="dir_000035_000030.html" target="_top" xlink:title="1">
<text text-anchor="middle" x="348.588" y="-489.8622" font-family="Helvetica,sans-Serif" font-size="10.00" fill="#000000">1</text>
</a>
</g>
</g>
<!-- dir_16ec7e00b3eaf1dbf09e67ec3cfcc7e2&#45;&gt;dir_b2430326e20a3ae038db3bac19f0573b -->
<g id="edge40" class="edge">
<title>dir_16ec7e00b3eaf1dbf09e67ec3cfcc7e2&#45;&gt;dir_b2430326e20a3ae038db3bac19f0573b</title>
<path fill="none" stroke="#000000" d="M559.6136,-252.314C552.8714,-271.5678 536.7983,-302.0538 517,-324 474.6945,-370.8952 412.4577,-411.439 373.199,-433.1399"/>
<polygon fill="#000000" stroke="#000000" points="371.3569,-430.1569 364.2222,-437.9894 374.6841,-436.3157 371.3569,-430.1569"/>
<g id="a_edge40&#45;headlabel"><a xlink:href="dir_000035_000011.html" target="_top" xlink:title="16">
<text text-anchor="middle" x="373.17" y="-423.4504" font-family="Helvetica,sans-Serif" font-size="10.00" fill="#000000">16</text>
</a>
</g>
</g>
<!-- dir_16ec7e00b3eaf1dbf09e67ec3cfcc7e2&#45;&gt;dir_4022f63979af12af4c32ec9a4562b2df -->
<g id="edge41" class="edge">
<title>dir_16ec7e00b3eaf1dbf09e67ec3cfcc7e2&#45;&gt;dir_4022f63979af12af4c32ec9a4562b2df</title>
<path fill="none" stroke="#000000" d="M598.0328,-219.171C614.6449,-210.4301 632.5896,-197.5834 642,-180 664.6492,-137.6796 672.9216,-108.7131 642,-72 607.1686,-30.6447 442.0291,-20.9609 366.6627,-18.6933"/>
<polygon fill="#000000" stroke="#000000" points="366.312,-15.1826 356.2206,-18.4097 366.1219,-22.18 366.312,-15.1826"/>
<g id="a_edge41&#45;headlabel"><a xlink:href="dir_000035_000033.html" target="_top" xlink:title="6">
<text text-anchor="middle" x="369.9824" y="-9.9419" font-family="Helvetica,sans-Serif" font-size="10.00" fill="#000000">6</text>
</a>
</g>
</g>
<!-- dir_16ec7e00b3eaf1dbf09e67ec3cfcc7e2&#45;&gt;dir_a933ab6cde53f9fa4d29dc295cb0ac5f -->
<g id="edge42" class="edge">
<title>dir_16ec7e00b3eaf1dbf09e67ec3cfcc7e2&#45;&gt;dir_a933ab6cde53f9fa4d29dc295cb0ac5f</title>
<path fill="none" stroke="#000000" d="M544.87,-215.7322C527.7146,-196.7881 499.3353,-166.805 472,-144 458.4778,-132.7189 442.6093,-121.5217 428.6559,-112.2732"/>
<polygon fill="#000000" stroke="#000000" points="430.5394,-109.323 420.2535,-106.7831 426.7105,-115.183 430.5394,-109.323"/>
<g id="a_edge42&#45;headlabel"><a xlink:href="dir_000035_000013.html" target="_top" xlink:title="7">
<text text-anchor="middle" x="435.1016" y="-106.4123" font-family="Helvetica,sans-Serif" font-size="10.00" fill="#000000">7</text>
</a>
</g>
</g>
<!-- dir_16ec7e00b3eaf1dbf09e67ec3cfcc7e2&#45;&gt;dir_90a2ad6518b731f1dc196d14153b8b6b -->
<g id="edge43" class="edge">
<title>dir_16ec7e00b3eaf1dbf09e67ec3cfcc7e2&#45;&gt;dir_90a2ad6518b731f1dc196d14153b8b6b</title>
<path fill="none" stroke="#000000" d="M545.8478,-252.0349C525.8759,-275.4041 491.364,-314.3091 475,-324 422.8821,-354.8646 352.8876,-368.4356 310.4619,-374.1444"/>
<polygon fill="#000000" stroke="#000000" points="309.7781,-370.7029 300.2973,-375.4321 310.6579,-377.6474 309.7781,-370.7029"/>
<g id="a_edge43&#45;headlabel"><a xlink:href="dir_000035_000010.html" target="_top" xlink:title="97">
<text text-anchor="middle" x="312.9874" y="-364.9345" font-family="Helvetica,sans-Serif" font-size="10.00" fill="#000000">97</text>
</a>
</g>
</g>
<!-- dir_16ec7e00b3eaf1dbf09e67ec3cfcc7e2&#45;&gt;dir_1a6d8571b8eba91bded1d6534762df79 -->
<g id="edge44" class="edge">
<title>dir_16ec7e00b3eaf1dbf09e67ec3cfcc7e2&#45;&gt;dir_1a6d8571b8eba91bded1d6534762df79</title>
<path fill="none" stroke="#000000" d="M523.9824,-222.5118C480.5438,-209.0308 408.9648,-186.8167 365.6749,-173.3819"/>
<polygon fill="#000000" stroke="#000000" points="366.6884,-170.0318 356.1003,-170.4104 364.6136,-176.7172 366.6884,-170.0318"/>
<g id="a_edge44&#45;headlabel"><a xlink:href="dir_000035_000032.html" target="_top" xlink:title="5">
<text text-anchor="middle" x="370.963" y="-165.8855" font-family="Helvetica,sans-Serif" font-size="10.00" fill="#000000">5</text>
</a>
</g>
</g>
</g>
</svg>
