<?xml version="1.0" encoding="UTF-8" standalone="no"?>
<!DOCTYPE svg PUBLIC "-//W3C//DTD SVG 1.1//EN"
 "http://www.w3.org/Graphics/SVG/1.1/DTD/svg11.dtd">
<!-- Generated by graphviz version 2.40.1 (20161225.0304)
 -->
<!-- Title: G Pages: 1 -->
<svg width="505pt" height="527pt"
 viewBox="0.00 0.00 504.50 527.40" xmlns="http://www.w3.org/2000/svg" xmlns:xlink="http://www.w3.org/1999/xlink">
<g id="graph0" class="graph" transform="scale(1 1) rotate(0) translate(4 523.397)">
<title>G</title>
<!-- tria -->
<g id="node1" class="node">
<title>tria</title>
<g id="a_node1"><a xlink:href="group__grid.html" target="_top" xlink:title="Triangulation">
<polygon fill="#ffffff" stroke="#000000" points="475.5,-395.6985 360.5,-395.6985 360.5,-370.6985 475.5,-370.6985 475.5,-395.6985"/>
<text text-anchor="middle" x="418" y="-379.6985" font-family="FreeSans" font-size="15.00" fill="#000000">Triangulation</text>
</a>
</g>
</g>
<!-- dh -->
<g id="node5" class="node">
<title>dh</title>
<g id="a_node5"><a xlink:href="group__dofs.html" target="_top" xlink:title="DoFHandler">
<polygon fill="#ffffff" stroke="#000000" points="350.5,-334.6985 245.5,-334.6985 245.5,-309.6985 350.5,-309.6985 350.5,-334.6985"/>
<text text-anchor="middle" x="298" y="-318.6985" font-family="FreeSans" font-size="15.00" fill="#000000">DoFHandler</text>
</a>
</g>
</g>
<!-- tria&#45;&gt;dh -->
<g id="edge5" class="edge">
<title>tria&#45;&gt;dh</title>
<path fill="none" stroke="#000000" d="M393.1359,-370.5592C375.4371,-361.5624 351.4405,-349.3641 331.976,-339.4696"/>
<polygon fill="#000000" stroke="#000000" points="333.3326,-336.233 322.8322,-334.8215 330.1606,-342.4731 333.3326,-336.233"/>
</g>
<!-- fe -->
<g id="node2" class="node">
<title>fe</title>
<g id="a_node2"><a xlink:href="group__feall.html" target="_top" xlink:title="FiniteElement">
<polygon fill="#ffffff" stroke="#000000" points="342.5,-395.6985 221.5,-395.6985 221.5,-370.6985 342.5,-370.6985 342.5,-395.6985"/>
<text text-anchor="middle" x="282" y="-379.6985" font-family="FreeSans" font-size="15.00" fill="#000000">FiniteElement</text>
</a>
</g>
</g>
<!-- fe&#45;&gt;dh -->
<g id="edge6" class="edge">
<title>fe&#45;&gt;dh</title>
<path fill="none" stroke="#000000" d="M285.3152,-370.5592C287.2674,-363.1164 289.7944,-353.4825 292.0784,-344.7746"/>
<polygon fill="#000000" stroke="#000000" points="295.5373,-345.3824 294.689,-334.8215 288.7664,-343.6063 295.5373,-345.3824"/>
</g>
<!-- fevalues -->
<g id="node7" class="node">
<title>fevalues</title>
<polygon fill="#00bfff" stroke="#000000" points="210,-273.6985 94,-273.6985 94,-248.6985 210,-248.6985 210,-273.6985"/>
<text text-anchor="middle" x="152" y="-257.6985" font-family="FreeSans" font-size="15.00" fill="#000000">FEEvaluation</text>
</g>
<!-- fe&#45;&gt;fevalues -->
<g id="edge7" class="edge">
<title>fe&#45;&gt;fevalues</title>
<path fill="none" stroke="#000000" d="M268.5774,-370.6019C245.9044,-349.3241 199.8642,-306.1172 172.9234,-280.8343"/>
<polygon fill="#000000" stroke="#000000" points="175.2314,-278.2004 165.5444,-273.9094 170.4412,-283.3047 175.2314,-278.2004"/>
</g>
<!-- mapping -->
<g id="node3" class="node">
<title>mapping</title>
<g id="a_node3"><a xlink:href="group__mapping.html" target="_top" xlink:title="Mapping">
<polygon fill="#ffffff" stroke="#000000" points="82,-395.6985 0,-395.6985 0,-370.6985 82,-370.6985 82,-395.6985"/>
<text text-anchor="middle" x="41" y="-379.6985" font-family="FreeSans" font-size="15.00" fill="#000000">Mapping</text>
</a>
</g>
</g>
<!-- mapping&#45;&gt;fevalues -->
<g id="edge8" class="edge">
<title>mapping&#45;&gt;fevalues</title>
<path fill="none" stroke="#000000" d="M52.4609,-370.6019C71.6539,-349.5068 110.4579,-306.8573 133.5387,-281.4893"/>
<polygon fill="#000000" stroke="#000000" points="136.2942,-283.6615 140.4352,-273.9094 131.1166,-278.9506 136.2942,-283.6615"/>
</g>
<!-- quadrature -->
<g id="node4" class="node">
<title>quadrature</title>
<g id="a_node4"><a xlink:href="group__Quadrature.html" target="_top" xlink:title="Quadrature">
<polygon fill="#ffffff" stroke="#000000" points="203.5,-395.6985 100.5,-395.6985 100.5,-370.6985 203.5,-370.6985 203.5,-395.6985"/>
<text text-anchor="middle" x="152" y="-379.6985" font-family="FreeSans" font-size="15.00" fill="#000000">Quadrature</text>
</a>
</g>
</g>
<!-- quadrature&#45;&gt;fevalues -->
<g id="edge9" class="edge">
<title>quadrature&#45;&gt;fevalues</title>
<path fill="none" stroke="#000000" d="M152,-370.6019C152,-350.2373 152,-309.7856 152,-284.1855"/>
<polygon fill="#000000" stroke="#000000" points="155.5001,-283.9093 152,-273.9094 148.5001,-283.9094 155.5001,-283.9093"/>
</g>
<!-- mf -->
<g id="node8" class="node">
<title>mf</title>
<polygon fill="#00bfff" stroke="#000000" points="368,-273.6985 228,-273.6985 228,-248.6985 368,-248.6985 368,-273.6985"/>
<text text-anchor="middle" x="298" y="-257.6985" font-family="FreeSans" font-size="15.00" fill="#000000">MatrixFree loops</text>
</g>
<!-- dh&#45;&gt;mf -->
<g id="edge10" class="edge">
<title>dh&#45;&gt;mf</title>
<path fill="none" stroke="#000000" d="M298,-309.5592C298,-302.1982 298,-292.694 298,-284.062"/>
<polygon fill="#000000" stroke="#000000" points="301.5001,-283.8215 298,-273.8215 294.5001,-283.8216 301.5001,-283.8215"/>
</g>
<!-- simd -->
<g id="node6" class="node">
<title>simd</title>
<polygon fill="#ffffff" stroke="#c0c0c0" points="75.5,-271.6985 28.5,-271.6985 28.5,-250.6985 75.5,-250.6985 75.5,-271.6985"/>
<text text-anchor="middle" x="52" y="-258.0985" font-family="FreeSans" font-size="12.00" fill="#c0c0c0">SIMD</text>
</g>
<!-- simd&#45;&gt;fevalues -->
<g id="edge1" class="edge">
<title>simd&#45;&gt;fevalues</title>
<path fill="none" stroke="transparent" d="M75.8281,-261.1985C81.8782,-261.1985 87.9283,-261.1985 93.9785,-261.1985"/>
</g>
<!-- fevalues&#45;&gt;mf -->
<g id="edge2" class="edge">
<title>fevalues&#45;&gt;mf</title>
<path fill="none" stroke="transparent" d="M210.1719,-261.1985C216.0042,-261.1985 221.8365,-261.1985 227.6689,-261.1985"/>
</g>
<!-- systems -->
<g id="node15" class="node">
<title>systems</title>
<polygon fill="#00bfff" stroke="#000000" points="270.5,-212.6985 179.5,-212.6985 179.5,-187.6985 270.5,-187.6985 270.5,-212.6985"/>
<text text-anchor="middle" x="225" y="-196.6985" font-family="FreeSans" font-size="15.00" fill="#000000">Operators</text>
</g>
<!-- fevalues&#45;&gt;systems -->
<g id="edge12" class="edge">
<title>fevalues&#45;&gt;systems</title>
<path fill="none" stroke="#000000" d="M167.1256,-248.5592C177.2073,-240.1349 190.648,-228.9036 202.0389,-219.3851"/>
<polygon fill="#000000" stroke="#000000" points="204.4644,-221.9195 209.8937,-212.8215 199.9758,-216.548 204.4644,-221.9195"/>
</g>
<!-- cuda -->
<g id="node9" class="node">
<title>cuda</title>
<g id="a_node9"><a xlink:href="group__CUDAWrappers.html" target="_top" xlink:title="CUDA">
<polygon fill="#ffffff" stroke="#c0c0c0" points="437.5,-271.6985 386.5,-271.6985 386.5,-250.6985 437.5,-250.6985 437.5,-271.6985"/>
<text text-anchor="middle" x="412" y="-258.0985" font-family="FreeSans" font-size="12.00" fill="#c0c0c0">CUDA</text>
</a>
</g>
</g>
<!-- mf&#45;&gt;cuda -->
<g id="edge3" class="edge">
<title>mf&#45;&gt;cuda</title>
<path fill="none" stroke="transparent" d="M368.3594,-261.1985C374.3827,-261.1985 380.406,-261.1985 386.4293,-261.1985"/>
</g>
<!-- mf&#45;&gt;systems -->
<g id="edge11" class="edge">
<title>mf&#45;&gt;systems</title>
<path fill="none" stroke="#000000" d="M282.8744,-248.5592C272.7927,-240.1349 259.352,-228.9036 247.9611,-219.3851"/>
<polygon fill="#000000" stroke="#000000" points="250.0242,-216.548 240.1063,-212.8215 245.5356,-221.9195 250.0242,-216.548"/>
</g>
<!-- tbb -->
<g id="node10" class="node">
<title>tbb</title>
<polygon fill="#ffffff" stroke="#c0c0c0" points="496.5,-271.6985 455.5,-271.6985 455.5,-250.6985 496.5,-250.6985 496.5,-271.6985"/>
<text text-anchor="middle" x="476" y="-258.0985" font-family="FreeSans" font-size="12.00" fill="#c0c0c0">TBB</text>
</g>
<!-- cuda&#45;&gt;tbb -->
<g id="edge4" class="edge">
<title>cuda&#45;&gt;tbb</title>
<path fill="none" stroke="transparent" d="M437.5,-261.1985C443.4154,-261.1985 449.3307,-261.1985 455.2461,-261.1985"/>
</g>
<!-- solvers -->
<g id="node11" class="node">
<title>solvers</title>
<g id="a_node11"><a xlink:href="group__Solvers.html" target="_top" xlink:title="Solvers">
<polygon fill="#00bfff" stroke="#000000" points="260.5,-151.6985 189.5,-151.6985 189.5,-126.6985 260.5,-126.6985 260.5,-151.6985"/>
<text text-anchor="middle" x="225" y="-135.6985" font-family="FreeSans" font-size="15.00" fill="#000000">Solvers</text>
</a>
</g>
</g>
<!-- output -->
<g id="node13" class="node">
<title>output</title>
<g id="a_node13"><a xlink:href="group__output.html" target="_top" xlink:title="Graphical output">
<polygon fill="#ffffff" stroke="#000000" points="297,-90.6985 153,-90.6985 153,-65.6985 297,-65.6985 297,-90.6985"/>
<text text-anchor="middle" x="225" y="-74.6985" font-family="FreeSans" font-size="15.00" fill="#000000">Graphical output</text>
</a>
</g>
</g>
<!-- solvers&#45;&gt;output -->
<g id="edge14" class="edge">
<title>solvers&#45;&gt;output</title>
<path fill="none" stroke="#000000" d="M225,-126.5592C225,-119.1982 225,-109.694 225,-101.062"/>
<polygon fill="#000000" stroke="#000000" points="228.5001,-100.8215 225,-90.8215 221.5001,-100.8216 228.5001,-100.8215"/>
</g>
<!-- gmg -->
<g id="node12" class="node">
<title>gmg</title>
<polygon fill="none" stroke="#000000" stroke-dasharray="5,2" points="413.5,-149.6985 278.5,-149.6985 278.5,-128.6985 413.5,-128.6985 413.5,-149.6985"/>
<text text-anchor="middle" x="346" y="-136.0985" font-family="FreeSans" font-size="12.00" fill="#000000">Geometric Multigrid</text>
</g>
<!-- visit -->
<g id="node18" class="node">
<title>visit</title>
<ellipse fill="#ffffff" stroke="#c0c0c0" cx="176" cy="-14.8492" rx="29.8983" ry="14.7"/>
<text text-anchor="middle" x="176" y="-11.7492" font-family="FreeSans" font-size="12.00" fill="#c0c0c0">VisIt</text>
</g>
<!-- output&#45;&gt;visit -->
<g id="edge19" class="edge">
<title>output&#45;&gt;visit</title>
<path fill="none" stroke="#c0c0c0" d="M215.3192,-65.6827C207.1751,-55.1537 195.5315,-40.1004 187.029,-29.108"/>
</g>
<!-- paraview -->
<g id="node19" class="node">
<title>paraview</title>
<ellipse fill="#ffffff" stroke="#c0c0c0" cx="275" cy="-14.8492" rx="50.8235" ry="14.7"/>
<text text-anchor="middle" x="275" y="-11.7492" font-family="FreeSans" font-size="12.00" fill="#c0c0c0">ParaView</text>
</g>
<!-- output&#45;&gt;paraview -->
<g id="edge20" class="edge">
<title>output&#45;&gt;paraview</title>
<path fill="none" stroke="#c0c0c0" d="M234.8784,-65.6827C243.0749,-55.2979 254.745,-40.512 263.3876,-29.562"/>
</g>
<!-- manifold -->
<g id="node14" class="node">
<title>manifold</title>
<g id="a_node14"><a xlink:href="group__manifold.html" target="_top" xlink:title="Manifold">
<polygon fill="#ffffff" stroke="#000000" points="223.5,-459.0477 142.5,-459.0477 142.5,-434.0477 223.5,-434.0477 223.5,-459.0477"/>
<text text-anchor="middle" x="183" y="-443.0477" font-family="FreeSans" font-size="15.00" fill="#000000">Manifold</text>
</a>
</g>
</g>
<!-- manifold&#45;&gt;tria -->
<g id="edge15" class="edge">
<title>manifold&#45;&gt;tria</title>
<path fill="none" stroke="#000000" d="M223.6656,-435.5855C261.7318,-425.3239 318.957,-409.8976 361.462,-398.4395"/>
<polygon fill="#000000" stroke="#000000" points="362.6391,-401.7472 371.3834,-395.765 360.8171,-394.9885 362.6391,-401.7472"/>
</g>
<!-- manifold&#45;&gt;mapping -->
<g id="edge16" class="edge">
<title>manifold&#45;&gt;mapping</title>
<path fill="none" stroke="#000000" d="M154.9454,-434.032C133.1109,-424.2911 102.5967,-410.6781 78.6403,-399.9906"/>
<polygon fill="#000000" stroke="#000000" points="80.0408,-396.783 69.4824,-395.9051 77.1888,-403.1757 80.0408,-396.783"/>
</g>
<!-- systems&#45;&gt;solvers -->
<g id="edge13" class="edge">
<title>systems&#45;&gt;solvers</title>
<path fill="none" stroke="#000000" d="M225,-187.5592C225,-180.1982 225,-170.694 225,-162.062"/>
<polygon fill="#000000" stroke="#000000" points="228.5001,-161.8215 225,-151.8215 221.5001,-161.8216 228.5001,-161.8215"/>
</g>
<!-- opencascade -->
<g id="node16" class="node">
<title>opencascade</title>
<polygon fill="#ffffff" stroke="#c0c0c0" points="130,-497.897 130,-518.897 236,-518.897 236,-497.897 130,-497.897"/>
<text text-anchor="middle" x="183" y="-505.297" font-family="FreeSans" font-size="12.00" fill="#c0c0c0">OpenCASCADE</text>
</g>
<!-- opencascade&#45;&gt;manifold -->
<g id="edge17" class="edge">
<title>opencascade&#45;&gt;manifold</title>
<path fill="none" stroke="#c0c0c0" d="M183,-497.6237C183,-486.9638 183,-470.6459 183,-459.3348"/>
</g>
<!-- gmsh -->
<g id="node17" class="node">
<title>gmsh</title>
<g id="a_node17"><a xlink:href="namespaceGmsh.html" target="_top" xlink:title="gmsh">
<ellipse fill="#ffffff" stroke="#c0c0c0" cx="418" cy="-446.5477" rx="35.2113" ry="14.7"/>
<text text-anchor="middle" x="418" y="-443.4477" font-family="FreeSans" font-size="12.00" fill="#c0c0c0">gmsh</text>
</a>
</g>
</g>
<!-- gmsh&#45;&gt;tria -->
<g id="edge18" class="edge">
<title>gmsh&#45;&gt;tria</title>
<path fill="none" stroke="#c0c0c0" d="M418,-431.5348C418,-420.7047 418,-406.2415 418,-395.9657"/>
</g>
</g>
</svg>
