<?xml version="1.0" encoding="UTF-8" standalone="no"?>
<!DOCTYPE svg PUBLIC "-//W3C//DTD SVG 1.1//EN"
 "http://www.w3.org/Graphics/SVG/1.1/DTD/svg11.dtd">
<!-- Generated by graphviz version 2.40.1 (20161225.0304)
 -->
<!-- Title: G Pages: 1 -->
<svg width="496pt" height="401pt"
 viewBox="0.00 0.00 495.50 400.70" xmlns="http://www.w3.org/2000/svg" xmlns:xlink="http://www.w3.org/1999/xlink">
<g id="graph0" class="graph" transform="scale(1 1) rotate(0) translate(4 396.6985)">
<title>G</title>
<!-- tria -->
<g id="node1" class="node">
<title>tria</title>
<g id="a_node1"><a xlink:href="group__grid.html" target="_top" xlink:title="Triangulation">
<polygon fill="#ffffff" stroke="#000000" points="487.5,-269 372.5,-269 372.5,-244 487.5,-244 487.5,-269"/>
<text text-anchor="middle" x="430" y="-253" font-family="FreeSans" font-size="15.00" fill="#000000">Triangulation</text>
</a>
</g>
</g>
<!-- dh -->
<g id="node5" class="node">
<title>dh</title>
<g id="a_node5"><a xlink:href="group__dofs.html" target="_top" xlink:title="DoFHandler">
<polygon fill="#ffffff" stroke="#000000" points="340.5,-208 235.5,-208 235.5,-183 340.5,-183 340.5,-208"/>
<text text-anchor="middle" x="288" y="-192" font-family="FreeSans" font-size="15.00" fill="#000000">DoFHandler</text>
</a>
</g>
</g>
<!-- tria&#45;&gt;dh -->
<g id="edge1" class="edge">
<title>tria&#45;&gt;dh</title>
<path fill="none" stroke="#000000" d="M400.5775,-243.8608C379.1579,-234.6594 349.9433,-222.1095 326.643,-212.1001"/>
<polygon fill="#000000" stroke="#000000" points="327.9544,-208.8543 317.3848,-208.123 325.1914,-215.2859 327.9544,-208.8543"/>
</g>
<!-- fe -->
<g id="node2" class="node">
<title>fe</title>
<g id="a_node2"><a xlink:href="group__feall.html" target="_top" xlink:title="Finite elements">
<polygon fill="#ffffff" stroke="#000000" points="354,-269 222,-269 222,-244 354,-244 354,-269"/>
<text text-anchor="middle" x="288" y="-253" font-family="FreeSans" font-size="15.00" fill="#000000">Finite elements</text>
</a>
</g>
</g>
<!-- fe&#45;&gt;tria -->
<g id="edge14" class="edge">
<title>fe&#45;&gt;tria</title>
<path fill="none" stroke="transparent" d="M354.0078,-256.5C360.1426,-256.5 366.2774,-256.5 372.4122,-256.5"/>
</g>
<!-- fe&#45;&gt;dh -->
<g id="edge2" class="edge">
<title>fe&#45;&gt;dh</title>
<path fill="none" stroke="#000000" d="M288,-243.8608C288,-236.4997 288,-226.9955 288,-218.3635"/>
<polygon fill="#000000" stroke="#000000" points="291.5001,-218.123 288,-208.123 284.5001,-218.1231 291.5001,-218.123"/>
</g>
<!-- fevalues -->
<g id="node6" class="node">
<title>fevalues</title>
<g id="a_node6"><a xlink:href="group__feaccess.html" target="_top" xlink:title="FEValues">
<polygon fill="#ffffff" stroke="#000000" points="206,-208 122,-208 122,-183 206,-183 206,-208"/>
<text text-anchor="middle" x="164" y="-192" font-family="FreeSans" font-size="15.00" fill="#000000">FEValues</text>
</a>
</g>
</g>
<!-- fe&#45;&gt;fevalues -->
<g id="edge3" class="edge">
<title>fe&#45;&gt;fevalues</title>
<path fill="none" stroke="#000000" d="M262.3071,-243.8608C243.9352,-234.823 218.9963,-222.5546 198.8345,-212.6363"/>
<polygon fill="#000000" stroke="#000000" points="200.178,-209.3967 189.66,-208.123 197.088,-215.6778 200.178,-209.3967"/>
</g>
<!-- mapping -->
<g id="node3" class="node">
<title>mapping</title>
<g id="a_node3"><a xlink:href="group__mapping.html" target="_top" xlink:title="Mapping">
<polygon fill="#ffffff" stroke="#000000" points="82,-269 0,-269 0,-244 82,-244 82,-269"/>
<text text-anchor="middle" x="41" y="-253" font-family="FreeSans" font-size="15.00" fill="#000000">Mapping</text>
</a>
</g>
</g>
<!-- quadrature -->
<g id="node4" class="node">
<title>quadrature</title>
<g id="a_node4"><a xlink:href="group__Quadrature.html" target="_top" xlink:title="Quadrature">
<polygon fill="#ffffff" stroke="#000000" points="203.5,-269 100.5,-269 100.5,-244 203.5,-244 203.5,-269"/>
<text text-anchor="middle" x="152" y="-253" font-family="FreeSans" font-size="15.00" fill="#000000">Quadrature</text>
</a>
</g>
</g>
<!-- mapping&#45;&gt;quadrature -->
<g id="edge12" class="edge">
<title>mapping&#45;&gt;quadrature</title>
<path fill="none" stroke="transparent" d="M82.1914,-256.5C88.2815,-256.5 94.3716,-256.5 100.4616,-256.5"/>
</g>
<!-- mapping&#45;&gt;fevalues -->
<g id="edge4" class="edge">
<title>mapping&#45;&gt;fevalues</title>
<path fill="none" stroke="#000000" d="M66.4857,-243.8608C84.7094,-234.823 109.4473,-222.5546 129.4464,-212.6363"/>
<polygon fill="#000000" stroke="#000000" points="131.1432,-215.7017 138.547,-208.123 128.0331,-209.4305 131.1432,-215.7017"/>
</g>
<!-- quadrature&#45;&gt;fe -->
<g id="edge13" class="edge">
<title>quadrature&#45;&gt;fe</title>
<path fill="none" stroke="transparent" d="M203.5313,-256.5C209.5804,-256.5 215.6296,-256.5 221.6788,-256.5"/>
</g>
<!-- quadrature&#45;&gt;fevalues -->
<g id="edge5" class="edge">
<title>quadrature&#45;&gt;fevalues</title>
<path fill="none" stroke="#000000" d="M154.4864,-243.8608C155.9506,-236.4179 157.8458,-226.784 159.5588,-218.0761"/>
<polygon fill="#000000" stroke="#000000" points="163.0207,-218.6106 161.5168,-208.123 156.1523,-217.2594 163.0207,-218.6106"/>
</g>
<!-- systems -->
<g id="node7" class="node">
<title>systems</title>
<g id="a_node7"><a xlink:href="group__LAC.html" target="_top" xlink:title="Linear systems">
<polygon fill="#ffffff" stroke="#000000" points="284,-147 156,-147 156,-122 284,-122 284,-147"/>
<text text-anchor="middle" x="220" y="-131" font-family="FreeSans" font-size="15.00" fill="#000000">Linear systems</text>
</a>
</g>
</g>
<!-- dh&#45;&gt;systems -->
<g id="edge6" class="edge">
<title>dh&#45;&gt;systems</title>
<path fill="none" stroke="#000000" d="M273.9104,-182.8608C264.6104,-174.5182 252.242,-163.4229 241.698,-153.9644"/>
<polygon fill="#000000" stroke="#000000" points="243.8526,-151.1953 234.0716,-147.123 239.1783,-156.406 243.8526,-151.1953"/>
</g>
<!-- fevalues&#45;&gt;systems -->
<g id="edge7" class="edge">
<title>fevalues&#45;&gt;systems</title>
<path fill="none" stroke="#000000" d="M175.6032,-182.8608C183.1118,-174.6818 193.0493,-163.857 201.6186,-154.5226"/>
<polygon fill="#000000" stroke="#000000" points="204.2272,-156.8566 208.4116,-147.123 199.0706,-152.1226 204.2272,-156.8566"/>
</g>
<!-- solvers -->
<g id="node8" class="node">
<title>solvers</title>
<g id="a_node8"><a xlink:href="group__Solvers.html" target="_top" xlink:title="Linear solvers">
<polygon fill="#ffffff" stroke="#000000" points="280,-86 160,-86 160,-61 280,-61 280,-86"/>
<text text-anchor="middle" x="220" y="-70" font-family="FreeSans" font-size="15.00" fill="#000000">Linear solvers</text>
</a>
</g>
</g>
<!-- systems&#45;&gt;solvers -->
<g id="edge8" class="edge">
<title>systems&#45;&gt;solvers</title>
<path fill="none" stroke="#000000" d="M220,-121.8608C220,-114.4997 220,-104.9955 220,-96.3635"/>
<polygon fill="#000000" stroke="#000000" points="223.5001,-96.123 220,-86.123 216.5001,-96.1231 223.5001,-96.123"/>
</g>
<!-- output -->
<g id="node9" class="node">
<title>output</title>
<g id="a_node9"><a xlink:href="group__output.html" target="_top" xlink:title="Graphical output">
<polygon fill="#ffffff" stroke="#000000" points="292,-25 148,-25 148,0 292,0 292,-25"/>
<text text-anchor="middle" x="220" y="-9" font-family="FreeSans" font-size="15.00" fill="#000000">Graphical output</text>
</a>
</g>
</g>
<!-- solvers&#45;&gt;output -->
<g id="edge9" class="edge">
<title>solvers&#45;&gt;output</title>
<path fill="none" stroke="#000000" d="M220,-60.8608C220,-53.4997 220,-43.9955 220,-35.3635"/>
<polygon fill="#000000" stroke="#000000" points="223.5001,-35.123 220,-25.123 216.5001,-35.1231 223.5001,-35.123"/>
</g>
<!-- manifold -->
<g id="node10" class="node">
<title>manifold</title>
<g id="a_node10"><a xlink:href="group__manifold.html" target="_top" xlink:title="Manifold">
<polygon fill="#00bfff" stroke="#000000" points="229.5,-332.3492 148.5,-332.3492 148.5,-307.3492 229.5,-307.3492 229.5,-332.3492"/>
<text text-anchor="middle" x="189" y="-316.3492" font-family="FreeSans" font-size="15.00" fill="#000000">Manifold</text>
</a>
</g>
</g>
<!-- manifold&#45;&gt;tria -->
<g id="edge10" class="edge">
<title>manifold&#45;&gt;tria</title>
<path fill="none" stroke="#000000" d="M229.6098,-309.1745C268.7702,-298.8808 328.4185,-283.2017 372.4617,-271.6245"/>
<polygon fill="#000000" stroke="#000000" points="373.3896,-274.9996 382.1712,-269.0723 371.61,-268.2296 373.3896,-274.9996"/>
</g>
<!-- manifold&#45;&gt;mapping -->
<g id="edge11" class="edge">
<title>manifold&#45;&gt;mapping</title>
<path fill="none" stroke="#000000" d="M159.76,-307.3335C136.8275,-297.5176 104.7086,-283.7695 79.6546,-273.0455"/>
<polygon fill="#000000" stroke="#000000" points="81.0027,-269.8155 70.4322,-269.098 78.2482,-276.2508 81.0027,-269.8155"/>
</g>
<!-- opencascade -->
<g id="node11" class="node">
<title>opencascade</title>
<polygon fill="#ffffff" stroke="#8c8c8c" points="136,-371.1985 136,-392.1985 242,-392.1985 242,-371.1985 136,-371.1985"/>
<text text-anchor="middle" x="189" y="-378.5985" font-family="FreeSans" font-size="12.00" fill="#8c8c8c">OpenCASCADE</text>
</g>
<!-- opencascade&#45;&gt;manifold -->
<g id="edge15" class="edge">
<title>opencascade&#45;&gt;manifold</title>
<path fill="none" stroke="#8c8c8c" d="M189,-370.9252C189,-360.2653 189,-343.9474 189,-332.6363"/>
</g>
<!-- gmsh -->
<g id="node12" class="node">
<title>gmsh</title>
<g id="a_node12"><a xlink:href="namespaceGmsh.html" target="_top" xlink:title="gmsh">
<ellipse fill="#ffffff" stroke="#8c8c8c" cx="430" cy="-319.8492" rx="35.2113" ry="14.7"/>
<text text-anchor="middle" x="430" y="-316.7492" font-family="FreeSans" font-size="12.00" fill="#8c8c8c">gmsh</text>
</a>
</g>
</g>
<!-- gmsh&#45;&gt;tria -->
<g id="edge16" class="edge">
<title>gmsh&#45;&gt;tria</title>
<path fill="none" stroke="#8c8c8c" d="M430,-304.8364C430,-294.0062 430,-279.543 430,-269.2673"/>
</g>
</g>
</svg>
